<?xml version="1.0" standalone="no"?>
<!DOCTYPE svg PUBLIC "-//W3C//DTD SVG 20010904//EN"
 "http://www.w3.org/TR/2001/REC-SVG-20010904/DTD/svg10.dtd">
<svg version="1.0" xmlns="http://www.w3.org/2000/svg"
 width="842.000000pt" height="842.000000pt" viewBox="0 0 842.000000 842.000000"
 preserveAspectRatio="xMidYMid meet">
<metadata>
Created by potrace 1.11, written by Peter Selinger 2001-2013
</metadata>
<g transform="translate(0.000000,842.000000) scale(0.100000,-0.100000)"
fill="#000000" stroke="none">
<path d="M1499 7700 c-100 -17 -191 -89 -238 -189 l-26 -56 0 -1285 0 -1285
30 -55 c17 -30 286 -407 598 -838 l567 -783 0 -419 0 -420 555 0 555 0 0 985
0 986 -674 723 c-371 398 -691 737 -712 754 -143 118 -370 64 -464 -109 -33
-61 -35 -69 -35 -164 0 -90 3 -105 28 -154 24 -46 213 -255 628 -696 l37 -40
-37 -44 -38 -43 -314 337 c-173 185 -328 358 -346 384 -55 81 -76 161 -71 276
3 87 8 109 36 168 17 38 46 87 64 110 39 49 130 109 192 127 l46 13 -2 736 -3
736 -28 57 c-65 133 -210 211 -348 188z"/>
<path d="M6522 7692 c-66 -24 -118 -65 -159 -126 -64 -94 -63 -77 -63 -862 l0
-712 38 -13 c119 -38 202 -110 258 -224 33 -67 38 -85 42 -174 5 -114 -16
-204 -67 -279 -16 -24 -161 -185 -322 -358 -162 -174 -304 -327 -316 -342
l-22 -27 -41 40 c-22 22 -39 42 -38 46 2 4 145 158 318 343 359 383 371 401
378 529 5 107 -20 180 -90 253 -66 70 -131 98 -228 99 -143 0 -100 39 -879
-796 l-691 -740 0 -984 0 -985 555 0 555 0 0 419 0 419 209 289 c114 158 373
515 574 793 202 278 377 525 389 550 l23 45 0 1285 0 1285 -28 56 c-32 67
-100 133 -165 161 -66 30 -163 33 -230 10z"/>
<path d="M3862 7544 c-221 -37 -411 -135 -586 -304 -247 -237 -366 -514 -366
-855 0 -411 219 -788 587 -1008 335 -202 818 -204 1155 -6 328 193 544 510
587 864 36 294 -25 570 -176 798 -26 40 -86 112 -133 161 -189 198 -396 311
-641 351 -114 18 -314 18 -427 -1z"/>
<path d="M7306 2360 c-34 -11 -63 -36 -82 -72 -21 -41 -20 -989 1 -1072 27
-103 64 -166 150 -251 125 -125 222 -166 395 -166 167 0 286 48 400 161 113
114 163 236 162 399 -1 108 -19 189 -60 265 -38 73 -174 205 -244 239 -127 61
-277 76 -339 34 -64 -43 -87 -128 -51 -196 26 -52 60 -72 139 -81 82 -9 128
-29 179 -77 52 -51 74 -105 74 -183 0 -153 -107 -259 -261 -260 -114 0 -207
65 -244 170 -12 35 -15 122 -15 514 0 537 2 522 -80 564 -46 23 -76 26 -124
12z"/>
<path d="M203 2169 c-34 -10 -80 -58 -88 -92 -3 -12 -5 -227 -3 -477 l3 -455
38 -79 c61 -128 178 -225 308 -255 73 -17 200 -13 268 8 174 54 300 206 321
388 14 123 -7 185 -73 217 -100 47 -217 -22 -217 -128 0 -65 -17 -110 -56
-148 -78 -79 -199 -67 -268 26 -19 25 -21 44 -24 231 l-3 204 278 3 c246 3
282 5 306 21 44 28 59 61 60 126 0 68 -16 101 -66 131 -30 18 -52 20 -303 20
l-271 0 -5 84 c-6 92 -23 133 -68 159 -35 21 -97 28 -137 16z"/>
<path d="M1570 1909 c-144 -18 -287 -126 -353 -266 l-32 -68 -3 -347 -3 -347
34 -37 c31 -34 40 -38 94 -42 69 -5 112 12 140 55 16 24 19 63 23 333 5 292 6
306 27 340 28 45 81 75 157 89 33 6 70 18 83 26 58 39 77 116 45 188 -31 70
-90 92 -212 76z"/>
<path d="M2398 1909 c-136 -15 -240 -69 -340 -177 -98 -107 -138 -215 -138
-377 0 -164 40 -272 142 -380 101 -108 193 -156 338 -177 448 -63 781 402 580
809 -108 219 -322 330 -582 302z m205 -327 c129 -72 175 -233 103 -356 -130
-222 -451 -156 -492 101 -18 113 72 244 196 284 48 16 137 3 193 -29z"/>
<path d="M3670 1913 c-240 -21 -442 -190 -495 -414 -12 -53 -15 -153 -15 -559
0 -473 1 -496 20 -527 52 -87 199 -85 257 4 17 25 18 67 23 523 6 558 2 532
85 609 43 40 120 71 175 71 64 0 132 -31 184 -83 56 -57 76 -104 76 -182 0
-70 -19 -121 -63 -171 -51 -58 -103 -84 -188 -93 -78 -8 -115 -29 -141 -82
-34 -66 -14 -150 45 -193 42 -31 176 -28 273 6 231 81 374 284 374 533 0 155
-47 277 -149 385 -115 123 -290 188 -461 173z"/>
<path d="M4475 1910 c-11 -4 -31 -20 -45 -35 l-25 -27 -3 -325 c-3 -348 0
-380 50 -477 32 -63 134 -162 200 -195 152 -76 358 -64 487 29 l41 30 41 -30
c125 -90 326 -105 477 -35 62 29 163 122 199 183 58 99 63 135 63 480 0 300
-1 319 -20 350 -52 85 -200 82 -257 -5 -16 -24 -19 -60 -23 -333 -5 -296 -6
-306 -28 -342 -26 -42 -91 -78 -140 -78 -37 0 -98 23 -124 47 -17 15 -18 42
-18 347 0 311 -1 333 -20 363 -29 47 -72 66 -141 61 -45 -3 -65 -10 -85 -29
-53 -49 -54 -56 -54 -366 0 -262 -2 -292 -19 -323 -55 -104 -183 -131 -268
-57 -61 54 -63 65 -63 379 0 316 -3 331 -69 375 -35 24 -114 31 -156 13z"/>
<path d="M6519 1906 c-186 -39 -348 -183 -411 -363 -33 -98 -33 -278 0 -376
30 -86 89 -174 158 -236 121 -107 230 -141 458 -141 179 0 207 9 244 81 39 74
18 158 -51 199 -28 17 -51 20 -168 20 -174 0 -224 14 -289 80 -50 49 -80 119
-80 185 0 48 25 122 54 160 49 64 171 115 235 100 22 -6 17 -13 -72 -103 -53
-54 -99 -110 -102 -125 -28 -112 92 -218 201 -177 27 11 359 328 381 365 17
28 16 100 -2 134 -33 66 -163 154 -275 188 -67 20 -205 25 -281 9z"/>
</g>
</svg>
